<svg width="1000.0000000000001" height="1000.0000000000001" xmlns="http://www.w3.org/2000/svg" xml:space="preserve" version="1.1">

 <g>
  <title>Layer 1</title>
  <g stroke="null" id="svg_1">
   <path stroke="null" id="svg_2" d="m981.84369,477.65369l-240.59595,-70.76352l141.52698,-251.21043c7.07648,-12.38359 5.30737,-26.53632 -5.30719,-35.38176c-8.8454,-8.84544 -24.76715,-12.38359 -35.38165,-5.30725l-251.21051,141.52707l-70.76361,-240.59601c-3.53802,-8.84544 -10.61444,-15.92178 -21.22894,-15.92178s-17.69092,7.07635 -21.22903,15.92178l-70.76358,240.59601l-251.21048,-141.52707c-12.38362,-7.07634 -26.53632,-5.30729 -35.38176,5.30725c-8.84544,8.84544 -10.61453,24.76723 -5.30726,35.38176l141.52706,251.21043l-240.59598,70.76352c-8.84544,3.53821 -15.92178,10.61459 -15.92178,21.22906s7.07635,17.69092 15.92178,21.22913l240.59598,70.76343l-141.52706,251.21051c-7.07638,12.38373 -5.30727,26.53632 5.30726,35.38171c5.30726,5.30731 14.15268,8.84546 21.22906,8.84546c5.30725,0 10.6145,-1.76904 14.15269,-3.53815l251.21048,-141.52698l70.76358,240.59589c3.53812,8.84546 10.61444,15.92181 21.22903,15.92181s17.69092,-7.07635 21.22894,-15.92181l70.76361,-240.59589l251.21051,141.52698c5.30719,1.7691 8.84546,3.53815 14.15265,3.53815c7.07623,0 15.92175,-3.53815 21.229,-8.84546c8.84546,-8.8454 10.61456,-24.76709 5.30719,-35.38171l-141.52698,-251.21051l240.59595,-70.76343c8.8454,-3.53821 15.92181,-10.61453 15.92181,-21.22913s-7.07642,-19.45996 -15.92181,-21.22906zm-396.27563,21.22906c0,47.76544 -38.91998,84.91626 -84.9162,84.91626c-47.76538,0 -84.91623,-38.91992 -84.91623,-84.91626s38.91998,-84.91617 84.91623,-84.91617c45.99622,-1.76907 84.9162,37.15079 84.9162,84.91617zm192.83057,-279.51585l-95.53076,169.83241l-56.61084,-15.92175l-17.69086,-56.61081l169.83246,-97.29985zm-557.26263,0l169.83243,95.53075l-15.92175,56.61078l-56.61084,15.92178l-97.29984,-168.06331zm0,557.26268l95.5307,-169.8324l56.61087,15.92175l15.92175,56.61084l-168.06332,97.2998zm557.26263,0l-169.83246,-95.53076l15.92188,-56.61078l56.61078,-15.92181l97.2998,168.06335z"/>
  </g>
 </g>
</svg>