<svg width="1000.0000000000001" height="1000.0000000000001" xmlns="http://www.w3.org/2000/svg" xml:space="preserve" version="1.1">
 <g>
  <title>Layer 1</title>
  <g stroke="null" id="svg_1">
   <path stroke="null" id="svg_2" d="m499.68277,0c-277.09679,0 -499.68277,222.6837 -499.68277,499.9021s222.58598,499.90216 499.68277,499.90216s499.68277,-222.68365 499.68277,-499.90216s-222.58594,-499.9021 -499.68277,-499.9021zm0,90.89135c127.1918,0 245.29886,59.07946 317.97977,154.51516c-208.95813,-40.90092 -427.00177,-40.90092 -635.95999,0c77.22369,-95.4357 190.78809,-154.51516 317.98016,-154.51516l0.00006,0zm-408.83131,418.09989c122.64947,77.25754 204.41587,209.04984 222.58601,354.47604c-131.73451,-68.16852 -218.04327,-199.96088 -222.58601,-354.47604zm408.83131,127.24796c-77.22366,0 -136.27719,-59.07947 -136.27719,-136.3371s59.05353,-136.33701 136.27719,-136.33701s136.27719,59.07947 136.27719,136.33701s-59.05347,136.3371 -136.27719,136.3371zm186.24533,227.22852c18.17017,-145.42627 99.93665,-277.21857 222.586,-354.4761c-4.54272,154.51517 -90.85156,286.30746 -222.586,354.4761z"/>
  </g>
 </g>

</svg>